<mxfile host="app.diagrams.net" agent="Mozilla/5.0 (Windows NT 10.0; Win64; x64) AppleWebKit/537.36 (KHTML, like Gecko) Chrome/134.0.0.0 Safari/537.36" version="26.0.11">
  <diagram name="Страница — 1" id="AqQXiT6Z7RfFUdrMdVaR">
    <mxGraphModel dx="1793" dy="975" grid="1" gridSize="10" guides="1" tooltips="1" connect="1" arrows="1" fold="1" page="1" pageScale="1" pageWidth="827" pageHeight="1169" math="0" shadow="0">
      <root>
        <mxCell id="0" />
        <mxCell id="1" parent="0" />
        <mxCell id="EvbB33QBFaXhQcK5xgCM-56" value="Тайник путешественника" style="swimlane;whiteSpace=wrap;html=1;" parent="1" vertex="1">
          <mxGeometry x="330" y="40" width="1140" height="1080" as="geometry" />
        </mxCell>
        <mxCell id="EvbB33QBFaXhQcK5xgCM-28" value="Верификация компаний" style="ellipse;whiteSpace=wrap;html=1;" parent="EvbB33QBFaXhQcK5xgCM-56" vertex="1">
          <mxGeometry x="310" y="700" width="120" height="80" as="geometry" />
        </mxCell>
        <mxCell id="EvbB33QBFaXhQcK5xgCM-36" value="Выдача данных для входа" style="ellipse;whiteSpace=wrap;html=1;" parent="EvbB33QBFaXhQcK5xgCM-56" vertex="1">
          <mxGeometry x="540" y="700" width="120" height="80" as="geometry" />
        </mxCell>
        <mxCell id="EvbB33QBFaXhQcK5xgCM-38" value="in" style="endArrow=classic;html=1;rounded=0;dashed=1;" parent="EvbB33QBFaXhQcK5xgCM-56" source="EvbB33QBFaXhQcK5xgCM-28" target="EvbB33QBFaXhQcK5xgCM-36" edge="1">
          <mxGeometry width="50" height="50" relative="1" as="geometry">
            <mxPoint x="810" y="740" as="sourcePoint" />
            <mxPoint x="860" y="690" as="targetPoint" />
          </mxGeometry>
        </mxCell>
        <mxCell id="EvbB33QBFaXhQcK5xgCM-26" value="Вход в админ панель" style="ellipse;whiteSpace=wrap;html=1;" parent="EvbB33QBFaXhQcK5xgCM-56" vertex="1">
          <mxGeometry x="170" y="840" width="120" height="80" as="geometry" />
        </mxCell>
        <mxCell id="EvbB33QBFaXhQcK5xgCM-50" value="Удаление постов" style="ellipse;whiteSpace=wrap;html=1;" parent="EvbB33QBFaXhQcK5xgCM-56" vertex="1">
          <mxGeometry x="370" y="930" width="120" height="80" as="geometry" />
        </mxCell>
        <mxCell id="EvbB33QBFaXhQcK5xgCM-52" value="in" style="endArrow=classic;html=1;rounded=0;dashed=1;" parent="EvbB33QBFaXhQcK5xgCM-56" source="EvbB33QBFaXhQcK5xgCM-26" target="EvbB33QBFaXhQcK5xgCM-50" edge="1">
          <mxGeometry width="50" height="50" relative="1" as="geometry">
            <mxPoint x="911" y="890" as="sourcePoint" />
            <mxPoint x="961" y="710" as="targetPoint" />
          </mxGeometry>
        </mxCell>
        <mxCell id="EvbB33QBFaXhQcK5xgCM-29" value="in" style="endArrow=classic;html=1;rounded=0;dashed=1;" parent="EvbB33QBFaXhQcK5xgCM-56" source="EvbB33QBFaXhQcK5xgCM-26" target="EvbB33QBFaXhQcK5xgCM-28" edge="1">
          <mxGeometry width="50" height="50" relative="1" as="geometry">
            <mxPoint x="900" y="630" as="sourcePoint" />
            <mxPoint x="910" y="650" as="targetPoint" />
          </mxGeometry>
        </mxCell>
        <mxCell id="EvbB33QBFaXhQcK5xgCM-32" value="Создание маршрута" style="ellipse;whiteSpace=wrap;html=1;" parent="EvbB33QBFaXhQcK5xgCM-56" vertex="1">
          <mxGeometry x="430" y="400" width="140" height="80" as="geometry" />
        </mxCell>
        <mxCell id="EvbB33QBFaXhQcK5xgCM-35" value="ex" style="endArrow=classic;html=1;rounded=0;dashed=1;" parent="EvbB33QBFaXhQcK5xgCM-56" source="EvbB33QBFaXhQcK5xgCM-32" target="EvbB33QBFaXhQcK5xgCM-42" edge="1">
          <mxGeometry width="50" height="50" relative="1" as="geometry">
            <mxPoint x="389.9989279090537" y="546.0381408129497" as="sourcePoint" />
            <mxPoint x="280" y="550.0000000000002" as="targetPoint" />
          </mxGeometry>
        </mxCell>
        <mxCell id="EvbB33QBFaXhQcK5xgCM-40" value="Указание точек на пути, описание, фото" style="ellipse;whiteSpace=wrap;html=1;" parent="EvbB33QBFaXhQcK5xgCM-56" vertex="1">
          <mxGeometry x="540" y="510" width="170" height="80" as="geometry" />
        </mxCell>
        <mxCell id="EvbB33QBFaXhQcK5xgCM-41" value="in" style="endArrow=classic;html=1;rounded=0;dashed=1;" parent="EvbB33QBFaXhQcK5xgCM-56" source="EvbB33QBFaXhQcK5xgCM-32" target="EvbB33QBFaXhQcK5xgCM-40" edge="1">
          <mxGeometry width="50" height="50" relative="1" as="geometry">
            <mxPoint x="460" y="720" as="sourcePoint" />
            <mxPoint x="510" y="670" as="targetPoint" />
          </mxGeometry>
        </mxCell>
        <mxCell id="EvbB33QBFaXhQcK5xgCM-42" value="Просмотр тур. путей" style="ellipse;whiteSpace=wrap;html=1;" parent="EvbB33QBFaXhQcK5xgCM-56" vertex="1">
          <mxGeometry x="190" y="400" width="140" height="80" as="geometry" />
        </mxCell>
        <mxCell id="EvbB33QBFaXhQcK5xgCM-45" value="Комментирование" style="ellipse;whiteSpace=wrap;html=1;" parent="EvbB33QBFaXhQcK5xgCM-56" vertex="1">
          <mxGeometry x="350" y="490" width="120" height="80" as="geometry" />
        </mxCell>
        <mxCell id="EvbB33QBFaXhQcK5xgCM-46" value="ex" style="endArrow=classic;html=1;rounded=0;dashed=1;" parent="EvbB33QBFaXhQcK5xgCM-56" source="EvbB33QBFaXhQcK5xgCM-45" target="EvbB33QBFaXhQcK5xgCM-42" edge="1">
          <mxGeometry width="50" height="50" relative="1" as="geometry">
            <mxPoint x="520" y="840" as="sourcePoint" />
            <mxPoint x="570" y="790" as="targetPoint" />
          </mxGeometry>
        </mxCell>
        <mxCell id="EvbB33QBFaXhQcK5xgCM-48" value="Добавление в избранное" style="ellipse;whiteSpace=wrap;html=1;" parent="EvbB33QBFaXhQcK5xgCM-56" vertex="1">
          <mxGeometry x="215" y="560" width="120" height="60" as="geometry" />
        </mxCell>
        <mxCell id="EvbB33QBFaXhQcK5xgCM-49" value="ex" style="endArrow=classic;html=1;rounded=0;dashed=1;" parent="EvbB33QBFaXhQcK5xgCM-56" target="EvbB33QBFaXhQcK5xgCM-42" edge="1" source="EvbB33QBFaXhQcK5xgCM-48">
          <mxGeometry width="50" height="50" relative="1" as="geometry">
            <mxPoint x="450" y="810" as="sourcePoint" />
            <mxPoint x="280" y="800" as="targetPoint" />
          </mxGeometry>
        </mxCell>
        <mxCell id="EvbB33QBFaXhQcK5xgCM-53" value="Выход" style="ellipse;whiteSpace=wrap;html=1;" parent="EvbB33QBFaXhQcK5xgCM-56" vertex="1">
          <mxGeometry x="60" y="440" width="85" height="30" as="geometry" />
        </mxCell>
        <mxCell id="EvbB33QBFaXhQcK5xgCM-54" value="ex" style="endArrow=classic;html=1;rounded=0;dashed=1;" parent="EvbB33QBFaXhQcK5xgCM-56" source="EvbB33QBFaXhQcK5xgCM-53" target="Bvx0uLmH98oH2DYC3OzF-22" edge="1">
          <mxGeometry width="50" height="50" relative="1" as="geometry">
            <mxPoint x="180" y="650" as="sourcePoint" />
            <mxPoint x="220" y="590.0000000000002" as="targetPoint" />
          </mxGeometry>
        </mxCell>
        <mxCell id="Bvx0uLmH98oH2DYC3OzF-10" value="При успешной верификации" style="rounded=0;whiteSpace=wrap;html=1;" vertex="1" parent="EvbB33QBFaXhQcK5xgCM-56">
          <mxGeometry x="820" y="190" width="120" height="60" as="geometry" />
        </mxCell>
        <mxCell id="Bvx0uLmH98oH2DYC3OzF-16" value="Галочка о статусе компании" style="ellipse;whiteSpace=wrap;html=1;" vertex="1" parent="EvbB33QBFaXhQcK5xgCM-56">
          <mxGeometry x="70" y="680" width="120" height="80" as="geometry" />
        </mxCell>
        <mxCell id="Bvx0uLmH98oH2DYC3OzF-22" value="Вход в личный кабинет" style="ellipse;whiteSpace=wrap;html=1;" vertex="1" parent="EvbB33QBFaXhQcK5xgCM-56">
          <mxGeometry x="84" y="510" width="120" height="80" as="geometry" />
        </mxCell>
        <mxCell id="Bvx0uLmH98oH2DYC3OzF-21" value="ex" style="endArrow=classic;html=1;rounded=0;dashed=1;" edge="1" parent="EvbB33QBFaXhQcK5xgCM-56" source="EvbB33QBFaXhQcK5xgCM-42" target="Bvx0uLmH98oH2DYC3OzF-22">
          <mxGeometry width="50" height="50" relative="1" as="geometry">
            <mxPoint x="230" y="510" as="sourcePoint" />
            <mxPoint x="230" y="600.0000000000002" as="targetPoint" />
          </mxGeometry>
        </mxCell>
        <mxCell id="EvbB33QBFaXhQcK5xgCM-12" value="Авторизация" style="ellipse;whiteSpace=wrap;html=1;" parent="EvbB33QBFaXhQcK5xgCM-56" vertex="1">
          <mxGeometry x="640" y="295" width="100" height="80" as="geometry" />
        </mxCell>
        <mxCell id="EvbB33QBFaXhQcK5xgCM-57" value="Ожидание прохождения верификации" style="ellipse;whiteSpace=wrap;html=1;" parent="EvbB33QBFaXhQcK5xgCM-56" vertex="1">
          <mxGeometry x="690" y="95" width="120" height="80" as="geometry" />
        </mxCell>
        <mxCell id="EvbB33QBFaXhQcK5xgCM-6" value="Выбор регистрирования как компания" style="ellipse;whiteSpace=wrap;html=1;" parent="EvbB33QBFaXhQcK5xgCM-56" vertex="1">
          <mxGeometry x="180" y="95" width="190" height="80" as="geometry" />
        </mxCell>
        <mxCell id="EvbB33QBFaXhQcK5xgCM-10" value="расширенная регистрация (название, юридический адрес, ИНН, сайт, контактное лицо)" style="ellipse;whiteSpace=wrap;html=1;" parent="EvbB33QBFaXhQcK5xgCM-56" vertex="1">
          <mxGeometry x="400" y="80" width="230" height="110" as="geometry" />
        </mxCell>
        <mxCell id="EvbB33QBFaXhQcK5xgCM-58" value="in" style="endArrow=classic;html=1;rounded=0;dashed=1;" parent="EvbB33QBFaXhQcK5xgCM-56" source="EvbB33QBFaXhQcK5xgCM-10" target="EvbB33QBFaXhQcK5xgCM-57" edge="1">
          <mxGeometry width="50" height="50" relative="1" as="geometry">
            <mxPoint x="330" y="-25" as="sourcePoint" />
            <mxPoint x="1060.7106781186549" y="345" as="targetPoint" />
          </mxGeometry>
        </mxCell>
        <mxCell id="EvbB33QBFaXhQcK5xgCM-11" value="in" style="edgeStyle=orthogonalEdgeStyle;rounded=0;orthogonalLoop=1;jettySize=auto;html=1;dashed=1;" parent="EvbB33QBFaXhQcK5xgCM-56" source="EvbB33QBFaXhQcK5xgCM-6" target="EvbB33QBFaXhQcK5xgCM-10" edge="1">
          <mxGeometry relative="1" as="geometry" />
        </mxCell>
        <mxCell id="EvbB33QBFaXhQcK5xgCM-9" value="Ввод email, имени, пароля, повтор пароля" style="ellipse;whiteSpace=wrap;html=1;" parent="EvbB33QBFaXhQcK5xgCM-56" vertex="1">
          <mxGeometry x="461" y="205" width="139" height="80" as="geometry" />
        </mxCell>
        <mxCell id="EvbB33QBFaXhQcK5xgCM-4" value="Выбор регистрирования как частный пользователь" style="ellipse;whiteSpace=wrap;html=1;" parent="EvbB33QBFaXhQcK5xgCM-56" vertex="1">
          <mxGeometry x="210" y="195" width="170" height="100" as="geometry" />
        </mxCell>
        <mxCell id="Bvx0uLmH98oH2DYC3OzF-4" value="in" style="endArrow=classic;html=1;rounded=0;dashed=1;" edge="1" parent="EvbB33QBFaXhQcK5xgCM-56" source="EvbB33QBFaXhQcK5xgCM-9" target="EvbB33QBFaXhQcK5xgCM-12">
          <mxGeometry width="50" height="50" relative="1" as="geometry">
            <mxPoint x="584.5" y="285" as="sourcePoint" />
            <mxPoint x="654.5" y="285" as="targetPoint" />
          </mxGeometry>
        </mxCell>
        <mxCell id="Bvx0uLmH98oH2DYC3OzF-5" value="in" style="endArrow=classic;html=1;rounded=0;dashed=1;" edge="1" parent="EvbB33QBFaXhQcK5xgCM-56" source="EvbB33QBFaXhQcK5xgCM-4" target="EvbB33QBFaXhQcK5xgCM-9">
          <mxGeometry width="50" height="50" relative="1" as="geometry">
            <mxPoint x="594" y="311" as="sourcePoint" />
            <mxPoint x="801" y="330" as="targetPoint" />
          </mxGeometry>
        </mxCell>
        <mxCell id="Bvx0uLmH98oH2DYC3OzF-9" value="ex" style="endArrow=classic;html=1;rounded=0;dashed=1;" edge="1" parent="EvbB33QBFaXhQcK5xgCM-56" source="EvbB33QBFaXhQcK5xgCM-12" target="EvbB33QBFaXhQcK5xgCM-57">
          <mxGeometry x="-0.2257" width="50" height="50" relative="1" as="geometry">
            <mxPoint x="800" y="240" as="sourcePoint" />
            <mxPoint x="780" y="260" as="targetPoint" />
            <mxPoint as="offset" />
          </mxGeometry>
        </mxCell>
        <mxCell id="Bvx0uLmH98oH2DYC3OzF-11" value="" style="endArrow=none;html=1;rounded=0;entryX=0;entryY=0.5;entryDx=0;entryDy=0;" edge="1" parent="EvbB33QBFaXhQcK5xgCM-56" target="Bvx0uLmH98oH2DYC3OzF-10">
          <mxGeometry width="50" height="50" relative="1" as="geometry">
            <mxPoint x="730" y="195" as="sourcePoint" />
            <mxPoint x="820" y="206.99999999999977" as="targetPoint" />
          </mxGeometry>
        </mxCell>
        <mxCell id="AbmG4Bhr6RF6K7J6KOYi-11" value="Выбор формата регистрации" style="ellipse;whiteSpace=wrap;html=1;" parent="EvbB33QBFaXhQcK5xgCM-56" vertex="1">
          <mxGeometry x="20" y="205" width="120" height="80" as="geometry" />
        </mxCell>
        <mxCell id="EvbB33QBFaXhQcK5xgCM-5" value="ex" style="edgeStyle=orthogonalEdgeStyle;rounded=0;orthogonalLoop=1;jettySize=auto;html=1;entryX=1;entryY=0.5;entryDx=0;entryDy=0;dashed=1;" parent="EvbB33QBFaXhQcK5xgCM-56" source="EvbB33QBFaXhQcK5xgCM-4" target="AbmG4Bhr6RF6K7J6KOYi-11" edge="1">
          <mxGeometry relative="1" as="geometry" />
        </mxCell>
        <mxCell id="EvbB33QBFaXhQcK5xgCM-7" value="ex" style="edgeStyle=orthogonalEdgeStyle;rounded=0;orthogonalLoop=1;jettySize=auto;html=1;dashed=1;" parent="EvbB33QBFaXhQcK5xgCM-56" source="EvbB33QBFaXhQcK5xgCM-6" target="AbmG4Bhr6RF6K7J6KOYi-11" edge="1">
          <mxGeometry relative="1" as="geometry" />
        </mxCell>
        <mxCell id="AbmG4Bhr6RF6K7J6KOYi-2" value="Частный пользователь" style="shape=umlActor;verticalLabelPosition=bottom;verticalAlign=top;html=1;outlineConnect=0;" parent="1" vertex="1">
          <mxGeometry x="240" y="560" width="30" height="60" as="geometry" />
        </mxCell>
        <mxCell id="AbmG4Bhr6RF6K7J6KOYi-3" value="Компания" style="shape=umlActor;verticalLabelPosition=bottom;verticalAlign=top;html=1;outlineConnect=0;" parent="1" vertex="1">
          <mxGeometry x="240" y="730" width="30" height="60" as="geometry" />
        </mxCell>
        <mxCell id="AbmG4Bhr6RF6K7J6KOYi-4" value="Администратор" style="shape=umlActor;verticalLabelPosition=bottom;verticalAlign=top;html=1;outlineConnect=0;" parent="1" vertex="1">
          <mxGeometry x="240" y="890" width="30" height="60" as="geometry" />
        </mxCell>
        <mxCell id="AbmG4Bhr6RF6K7J6KOYi-10" value="Гость" style="shape=umlActor;verticalLabelPosition=bottom;verticalAlign=top;html=1;outlineConnect=0;" parent="1" vertex="1">
          <mxGeometry x="240" y="340" width="30" height="60" as="geometry" />
        </mxCell>
        <mxCell id="AbmG4Bhr6RF6K7J6KOYi-13" value="" style="endArrow=none;html=1;rounded=0;" parent="1" source="AbmG4Bhr6RF6K7J6KOYi-10" target="AbmG4Bhr6RF6K7J6KOYi-11" edge="1">
          <mxGeometry width="50" height="50" relative="1" as="geometry">
            <mxPoint x="310" y="510" as="sourcePoint" />
            <mxPoint x="360" y="460" as="targetPoint" />
          </mxGeometry>
        </mxCell>
        <mxCell id="EvbB33QBFaXhQcK5xgCM-24" value="" style="endArrow=none;html=1;rounded=0;" parent="1" source="AbmG4Bhr6RF6K7J6KOYi-2" target="Bvx0uLmH98oH2DYC3OzF-22" edge="1">
          <mxGeometry width="50" height="50" relative="1" as="geometry">
            <mxPoint x="400" y="630" as="sourcePoint" />
            <mxPoint x="489.9999999999998" y="590.0000000000002" as="targetPoint" />
          </mxGeometry>
        </mxCell>
        <mxCell id="EvbB33QBFaXhQcK5xgCM-25" value="" style="endArrow=none;html=1;rounded=0;" parent="1" source="AbmG4Bhr6RF6K7J6KOYi-3" target="Bvx0uLmH98oH2DYC3OzF-16" edge="1">
          <mxGeometry width="50" height="50" relative="1" as="geometry">
            <mxPoint x="290" y="730" as="sourcePoint" />
            <mxPoint x="490.00000000000045" y="760" as="targetPoint" />
          </mxGeometry>
        </mxCell>
        <mxCell id="EvbB33QBFaXhQcK5xgCM-27" value="" style="endArrow=none;html=1;rounded=0;" parent="1" source="EvbB33QBFaXhQcK5xgCM-26" target="AbmG4Bhr6RF6K7J6KOYi-4" edge="1">
          <mxGeometry width="50" height="50" relative="1" as="geometry">
            <mxPoint x="1241" y="700" as="sourcePoint" />
            <mxPoint x="1291" y="650" as="targetPoint" />
          </mxGeometry>
        </mxCell>
        <mxCell id="Bvx0uLmH98oH2DYC3OzF-15" value="" style="endArrow=classic;html=1;rounded=0;" edge="1" parent="1" source="AbmG4Bhr6RF6K7J6KOYi-2" target="AbmG4Bhr6RF6K7J6KOYi-10">
          <mxGeometry width="50" height="50" relative="1" as="geometry">
            <mxPoint x="750" y="650" as="sourcePoint" />
            <mxPoint x="130" y="520" as="targetPoint" />
          </mxGeometry>
        </mxCell>
        <mxCell id="Bvx0uLmH98oH2DYC3OzF-18" value="" style="endArrow=classic;html=1;rounded=0;" edge="1" parent="1" source="AbmG4Bhr6RF6K7J6KOYi-3" target="AbmG4Bhr6RF6K7J6KOYi-2">
          <mxGeometry width="50" height="50" relative="1" as="geometry">
            <mxPoint x="160" y="770" as="sourcePoint" />
            <mxPoint x="210" y="720" as="targetPoint" />
          </mxGeometry>
        </mxCell>
        <mxCell id="Bvx0uLmH98oH2DYC3OzF-19" value="" style="endArrow=classic;html=1;rounded=0;" edge="1" parent="1" source="AbmG4Bhr6RF6K7J6KOYi-4" target="AbmG4Bhr6RF6K7J6KOYi-3">
          <mxGeometry width="50" height="50" relative="1" as="geometry">
            <mxPoint x="130" y="940" as="sourcePoint" />
            <mxPoint x="180" y="890" as="targetPoint" />
          </mxGeometry>
        </mxCell>
        <mxCell id="Bvx0uLmH98oH2DYC3OzF-23" value="" style="endArrow=none;html=1;rounded=0;" edge="1" parent="1" source="AbmG4Bhr6RF6K7J6KOYi-10" target="EvbB33QBFaXhQcK5xgCM-12">
          <mxGeometry width="50" height="50" relative="1" as="geometry">
            <mxPoint x="430" y="420" as="sourcePoint" />
            <mxPoint x="480" y="370" as="targetPoint" />
          </mxGeometry>
        </mxCell>
      </root>
    </mxGraphModel>
  </diagram>
</mxfile>
